<?xml version="1.0" encoding="UTF-8" standalone="no"?>
<!-- Generator: Adobe Illustrator 16.0.0, SVG Export Plug-In . SVG Version: 6.00 Build 0)  -->

<svg
   xmlns:dc="http://purl.org/dc/elements/1.1/"
   xmlns:cc="http://creativecommons.org/ns#"
   xmlns:rdf="http://www.w3.org/1999/02/22-rdf-syntax-ns#"
   xmlns:svg="http://www.w3.org/2000/svg"
   xmlns="http://www.w3.org/2000/svg"
   xmlns:sodipodi="http://sodipodi.sourceforge.net/DTD/sodipodi-0.dtd"
   xmlns:inkscape="http://www.inkscape.org/namespaces/inkscape"
   version="1.1"
   id="Layer_1"
   x="0px"
   y="0px"
   width="73.791618"
   height="57.426525"
   viewBox="0 0 73.791618 57.426525"
   xml:space="preserve"
   sodipodi:docname="ufo2.svg"
   inkscape:version="0.92.1 r15371"><metadata
     id="metadata4722"><rdf:RDF><cc:Work
         rdf:about=""><dc:format>image/svg+xml</dc:format><dc:type
           rdf:resource="http://purl.org/dc/dcmitype/StillImage" /><dc:title></dc:title></cc:Work></rdf:RDF></metadata><defs
     id="defs4720" /><sodipodi:namedview
     pagecolor="#ffffff"
     bordercolor="#666666"
     borderopacity="1"
     objecttolerance="10"
     gridtolerance="10"
     guidetolerance="10"
     inkscape:pageopacity="0"
     inkscape:pageshadow="2"
     inkscape:window-width="1600"
     inkscape:window-height="806"
     id="namedview4718"
     showgrid="false"
     inkscape:zoom="6.7425131"
     inkscape:cx="1.4200283"
     inkscape:cy="45.070811"
     inkscape:window-x="-11"
     inkscape:window-y="-11"
     inkscape:window-maximized="1"
     inkscape:current-layer="Layer_1" /><g
     id="g4715"
     transform="translate(-268.99967,-367.24917)"><path
       style="clip-rule:evenodd;fill:#666638;fill-rule:evenodd"
       d="m 326.318,393.729 c 11.186,6.48 17.888,13.36 16.22,17.601 -1.435,3.645 -8.728,4.501 -18.753,2.84 l 1.194,3.443 c -0.594,-0.083 -1.188,-0.011 -1.731,0.192 l -1.379,-3.978 c -6.088,-1.162 -13.053,-3.188 -20.261,-6.024 l -0.426,-0.168 -1.946,5.074 c -0.223,-0.155 -0.466,-0.287 -0.729,-0.391 -0.28,-0.11 -0.567,-0.182 -0.853,-0.219 l 1.956,-5.102 c -7.36,-3.033 -13.877,-6.49 -18.987,-9.929 l -4.029,2.271 c -0.281,-0.508 -0.688,-0.95 -1.197,-1.274 l 3.675,-2.07 c -7.224,-5.15 -11.138,-10.153 -9.819,-13.505 1.591,-4.044 10.393,-4.656 22.14,-2.204 0.142,-0.553 0.318,-1.102 0.532,-1.645 3.264,-8.295 13.744,-11.938 23.408,-8.135 9.662,3.802 14.85,13.61 11.585,21.905 -0.179,0.454 -0.38,0.893 -0.6,1.318 z"
       id="path4705"
       inkscape:connector-curvature="0" /><path
       style="clip-rule:evenodd;fill:#59360d;fill-rule:evenodd"
       d="m 278.98,385.662 c 1.465,0.577 2.186,2.232 1.609,3.698 -0.576,1.465 -2.232,2.186 -3.697,1.609 -1.466,-0.577 -2.187,-2.232 -1.609,-3.698 0.576,-1.465 2.232,-2.187 3.697,-1.609 z m 7.082,4.862 c 1.466,0.577 2.187,2.232 1.609,3.698 -0.576,1.465 -2.232,2.186 -3.698,1.609 -1.465,-0.577 -2.186,-2.232 -1.609,-3.698 0.577,-1.465 2.233,-2.185 3.698,-1.609 z m 7.334,3.974 c 1.465,0.577 2.186,2.232 1.609,3.698 -0.577,1.466 -2.232,2.186 -3.698,1.609 -1.465,-0.577 -2.186,-2.232 -1.609,-3.698 0.576,-1.465 2.232,-2.186 3.698,-1.609 z m 7.416,3.511 c 1.466,0.577 2.187,2.232 1.61,3.697 -0.577,1.466 -2.232,2.187 -3.698,1.61 -1.466,-0.577 -2.187,-2.232 -1.609,-3.698 0.575,-1.466 2.231,-2.186 3.697,-1.609 z m 7.585,3.084 c 1.465,0.576 2.186,2.231 1.608,3.697 -0.576,1.466 -2.231,2.187 -3.697,1.609 -1.466,-0.578 -2.187,-2.232 -1.61,-3.697 0.577,-1.466 2.234,-2.186 3.699,-1.609 z m 7.787,2.569 c 1.466,0.577 2.186,2.232 1.609,3.697 -0.576,1.466 -2.232,2.187 -3.698,1.609 -1.465,-0.576 -2.186,-2.231 -1.609,-3.697 0.577,-1.465 2.232,-2.185 3.698,-1.609 z m 8.603,2.002 c 1.466,0.576 2.186,2.231 1.609,3.697 -0.577,1.466 -2.232,2.187 -3.698,1.609 -1.465,-0.576 -2.186,-2.232 -1.608,-3.697 0.576,-1.465 2.231,-2.186 3.697,-1.609 z m 8.687,1.54 c 1.465,0.576 2.186,2.232 1.609,3.697 -0.577,1.466 -2.232,2.187 -3.698,1.609 -1.465,-0.576 -2.186,-2.232 -1.609,-3.697 0.577,-1.465 2.232,-2.186 3.698,-1.609 z"
       id="path4707"
       inkscape:connector-curvature="0" /><path
       style="clip-rule:evenodd;fill:#f0cc3d;fill-rule:evenodd"
       d="m 295.526,378.043 c 0.797,0.314 1.189,1.214 0.875,2.012 -0.314,0.797 -1.214,1.189 -2.012,0.875 -0.797,-0.314 -1.189,-1.214 -0.875,-2.012 0.314,-0.798 1.215,-1.189 2.012,-0.875 z m 3.852,2.645 c 0.797,0.314 1.189,1.214 0.876,2.012 -0.314,0.797 -1.214,1.189 -2.011,0.875 -0.797,-0.313 -1.189,-1.214 -0.876,-2.011 0.313,-0.797 1.214,-1.189 2.011,-0.876 z m 3.989,2.162 c 0.797,0.314 1.189,1.214 0.875,2.012 -0.313,0.797 -1.214,1.189 -2.011,0.875 -0.797,-0.313 -1.189,-1.214 -0.875,-2.011 0.313,-0.798 1.214,-1.19 2.011,-0.876 z m 4.035,1.91 c 0.797,0.313 1.188,1.214 0.875,2.012 -0.313,0.797 -1.214,1.189 -2.012,0.875 -0.797,-0.313 -1.189,-1.214 -0.875,-2.011 0.314,-0.798 1.214,-1.189 2.012,-0.876 z m 4.126,1.678 c 0.797,0.313 1.188,1.214 0.875,2.012 -0.313,0.797 -1.214,1.189 -2.012,0.875 -0.797,-0.313 -1.188,-1.214 -0.875,-2.011 0.314,-0.798 1.215,-1.19 2.012,-0.876 z m 4.236,1.397 c 0.798,0.313 1.189,1.214 0.875,2.011 -0.313,0.797 -1.214,1.189 -2.011,0.876 -0.798,-0.314 -1.189,-1.214 -0.875,-2.012 0.312,-0.796 1.214,-1.188 2.011,-0.875 z m 4.68,1.089 c 0.797,0.313 1.188,1.214 0.875,2.012 -0.313,0.797 -1.214,1.189 -2.012,0.875 -0.797,-0.313 -1.188,-1.214 -0.875,-2.011 0.314,-0.798 1.214,-1.189 2.012,-0.876 z m 4.725,0.838 c 0.797,0.313 1.189,1.214 0.876,2.011 -0.314,0.797 -1.215,1.189 -2.012,0.875 -0.798,-0.314 -1.189,-1.214 -0.876,-2.011 0.315,-0.797 1.215,-1.189 2.012,-0.875 z"
       id="path4709"
       inkscape:connector-curvature="0" /><path
       style="clip-rule:evenodd;fill:#59360d;fill-rule:evenodd"
       d="m 298.507,412.318 c 1.823,0.718 2.72,2.777 2.002,4.601 -0.718,1.824 -2.777,2.719 -4.601,2.002 -1.823,-0.718 -2.719,-2.777 -2.001,-4.601 0.718,-1.823 2.777,-2.718 4.6,-2.002 z m -23.718,-14.562 c 1.823,0.718 2.72,2.777 2.002,4.601 -0.718,1.824 -2.777,2.719 -4.6,2.002 -1.823,-0.718 -2.72,-2.777 -2.002,-4.601 0.717,-1.823 2.777,-2.719 4.6,-2.002 z m 51.001,20.07 c 1.823,0.717 2.721,2.776 2.003,4.6 -0.718,1.824 -2.777,2.72 -4.601,2.002 -1.824,-0.718 -2.72,-2.777 -2.002,-4.6 0.718,-1.823 2.777,-2.72 4.6,-2.002 z"
       id="path4711"
       inkscape:connector-curvature="0" /><path
       style="clip-rule:evenodd;fill:#59360d;fill-rule:evenodd"
       d="m 314.98,371.418 c 4.079,1.605 6.812,4.366 6.103,6.167 -0.708,1.8 -4.589,1.958 -8.668,0.353 -4.079,-1.605 -6.813,-4.366 -6.104,-6.167 0.709,-1.8 4.59,-1.958 8.669,-0.353 z"
       id="path4713"
       inkscape:connector-curvature="0" /></g><path
     id="path4724"
     style="fill:#0000ff;fill-opacity:1;stroke:none;stroke-width:0.10503803;stroke-linecap:round;stroke-linejoin:round;stroke-miterlimit:4;stroke-dasharray:none;stroke-opacity:0.58823529"
     d="m 38.412113,1.9002077 c -2.203475,0.00455 -2.653166,0.03325 -3.617187,0.2402344 -5.996246,1.2874496 -10.353592,4.8791486 -12.052734,9.9355469 -0.165313,0.491951 -0.325409,0.919149 -0.355469,0.949219 -0.03007,0.03006 -0.542464,-0.04281 -1.138672,-0.16211 C 20.651843,12.743797 19.433108,12.528369 18.539066,12.384583 7.366971,10.587808 0.33011622,12.110992 0.09961351,16.37677 c -0.05582554,1.033131 0.12594467,1.780699 0.72070313,2.96875 0.60172436,1.201964 1.19983696,2.046389 2.45898436,3.470703 1.3470143,1.523708 4.311019,4.120952 6.2050781,5.435547 0.3061382,0.212478 0.5558879,0.432554 0.5546869,0.490235 -0.0012,0.05768 -0.796324,0.546762 -1.7675775,1.085937 l -1.765625,0.980469 0.4570312,0.419922 c 0.2514355,0.231766 0.4332509,0.460962 0.4042969,0.507812 -0.028954,0.04685 0.042556,0.113691 0.1582031,0.150391 0.1501005,0.04764 0.7474776,-0.234823 2.0878906,-0.988281 1.0327387,-0.580515 1.9370457,-1.054688 2.0097657,-1.054688 0.07272,0 0.702801,0.370247 1.400391,0.822266 4.453712,2.885882 10.545411,6.060846 16.146484,8.416015 0.742221,0.312093 1.370081,0.617398 1.394531,0.679688 0.02445,0.06229 -0.378798,1.217885 -0.894531,2.568359 l -0.9375,2.457031 0.382812,0.113282 c 0.464455,0.13774 0.882279,0.350769 0.980469,0.501953 0.04271,0.06576 0.113235,0.0056 0.171875,-0.146485 0.05485,-0.142247 0.484971,-1.27355 0.957031,-2.513671 0.472059,-1.240122 0.890898,-2.285296 0.929688,-2.322266 0.03879,-0.03697 0.972322,0.275087 2.074219,0.693359 6.164761,2.340095 11.622143,3.948152 17.833984,5.251953 l 0.857422,0.179688 0.585937,1.710937 c 0.322476,0.941689 0.629744,1.829065 0.683594,1.970703 0.09006,0.236877 0.130546,0.249363 0.498047,0.164063 0.219742,-0.05101 0.580593,-0.09235 0.800781,-0.09375 0.466349,-0.0029 0.494946,0.214253 -0.251953,-1.931641 l -0.507812,-1.457031 0.546875,0.0625 c 0.300493,0.0339 1.253938,0.155666 2.11914,0.269531 2.56451,0.337502 4.846499,0.466411 7.074219,0.400391 4.14256,-0.122763 6.665762,-0.840315 8.140625,-2.316406 0.800694,-0.80136 1.093597,-1.503271 1.091797,-2.611328 -0.0016,-0.984405 -0.197297,-1.695541 -0.78125,-2.853516 -1.794398,-3.558274 -6.906829,-8.066557 -14.082031,-12.417969 l -1.595703,-0.96875 0.298828,-0.595703 c 1.134028,-2.252863 1.553092,-5.570914 1.064453,-8.423828 C 57.394463,10.38246 51.355578,4.3740052 43.498051,2.4216921 41.617148,1.9543554 41.038514,1.8947837 38.412113,1.9002077 Z m 2.464844,1.1738282 c 4.152025,0.031118 9.638749,2.7680884 10.996094,5.484375 0.690495,1.3818033 0.205864,2.5265511 -1.267578,2.9921871 -0.770317,0.243437 -2.82934,0.291932 -3.908203,0.0918 -4.831575,-0.896282 -9.492035,-4.0830866 -9.490235,-6.490234 0.001,-1.3685771 1.284695,-2.0960016 3.669922,-2.0781251 z M 25.921879,10.667786 c 0.267078,-0.0031 0.543954,0.06416 0.808594,0.212891 0.45102,0.253487 0.829072,0.893774 0.826172,1.402343 -0.0025,0.446012 -0.413611,1.095587 -0.835938,1.320313 -1.070029,0.569378 -2.307651,-0.174696 -2.308594,-1.388672 -7.33e-4,-0.902307 0.708531,-1.53751 1.509766,-1.546875 z m 3.896484,2.648437 c 0.321376,-0.0059 0.636977,0.07052 0.851563,0.230469 0.934893,0.69688 0.918519,2.081751 -0.03125,2.669922 -0.448287,0.277611 -1.243711,0.267691 -1.695313,-0.02149 -0.921775,-0.590248 -0.92712,-1.962915 -0.0098,-2.617187 0.235844,-0.168207 0.563389,-0.25583 0.884765,-0.261719 z m 3.992188,2.15625 c 0.265613,2.08e-4 0.53309,0.07337 0.775391,0.238282 0.56423,0.384011 0.773437,0.74638 0.773437,1.33789 0,0.591509 -0.209207,0.95388 -0.773437,1.337891 -0.223789,0.152314 -0.502512,0.234375 -0.78711,0.234375 -0.850682,0 -1.5625,-0.714989 -1.5625,-1.572266 0,-0.908573 0.777379,-1.576794 1.574219,-1.576172 z m 3.792969,1.927735 c 0.321097,-0.04847 0.66997,0.0075 1.007812,0.201171 1.014661,0.581717 1.054585,2.014994 0.07422,2.669922 -0.244377,0.163254 -0.511279,0.238282 -0.849609,0.238282 -0.602219,0 -1.127415,-0.317911 -1.390626,-0.841797 -0.525887,-1.046716 0.194912,-2.122163 1.158203,-2.267578 z M 8.9433635,18.257629 c 1.011608,4.24e-4 1.4863585,0.212058 2.1386715,0.953126 1.382411,1.570501 0.650316,3.998001 -1.3886715,4.603515 -0.7857176,0.233332 -1.3222909,0.172469 -2.1289063,-0.242187 -0.869113,-0.446784 -1.5058593,-1.525969 -1.5058593,-2.552735 0,-0.636368 0.3696235,-1.465284 0.8652343,-1.943359 0.6991216,-0.674386 1.0534188,-0.818779 2.0195313,-0.81836 z m 33.0214845,0.802735 c 0.102794,-0.004 0.205389,0.0044 0.30664,0.02344 0.759519,0.142487 1.226563,0.760665 1.226563,1.623047 0,0.579188 -0.295166,1.041477 -0.845703,1.326172 -0.464584,0.240245 -1.141267,0.195366 -1.583985,-0.105469 -0.474013,-0.3221 -0.77284,-1.023657 -0.669921,-1.572265 0.131943,-0.703317 0.846849,-1.267111 1.566406,-1.294922 z m 4.27539,1.408203 c 1.557491,0 2.113663,2.116719 0.759766,2.888672 -1.106015,0.630617 -2.345956,-0.06377 -2.347656,-1.314453 -0.0013,-0.932609 0.64631,-1.574219 1.58789,-1.574219 z m 4.453125,1.095703 c 0.479897,-0.05212 0.994281,0.1299 1.398438,0.5625 0.382903,0.409856 0.429064,1.343232 0.0918,1.84375 -0.136035,0.20188 -0.410599,0.44993 -0.611328,0.550781 -1.351155,0.678843 -2.785849,-0.783223 -2.074219,-2.113281 0.270668,-0.505888 0.715416,-0.791632 1.195312,-0.84375 z m 5.056641,0.861328 c 0.469233,0.03525 0.617473,0.101848 0.925781,0.410157 0.781354,0.781353 0.588072,2.024387 -0.390625,2.523437 -0.928708,0.473559 -2.069577,-0.127241 -2.248047,-1.183594 -0.05787,-0.342538 -0.02229,-0.527332 0.173829,-0.908203 0.330431,-0.641718 0.797758,-0.897487 1.539062,-0.841797 z m -39.78125,0.66211 c 0.837,6.5e-5 1.354032,0.191628 1.921875,0.71289 1.483104,1.361447 1.243476,3.631847 -0.486328,4.603516 -0.622526,0.349691 -1.684406,0.475257 -2.287109,0.269531 -0.598157,-0.204174 -1.324086,-0.84625 -1.642579,-1.453125 -0.271188,-0.516669 -0.298451,-0.658216 -0.263671,-1.363281 0.04436,-0.899252 0.238925,-1.374833 0.792968,-1.945313 0.527933,-0.543595 1.195227,-0.824278 1.964844,-0.824218 z m 7.341797,3.986328 c 1.64157,-0.01054 2.89273,1.217646 2.875,2.822265 -0.01229,1.111819 -0.529411,2.004301 -1.451172,2.503907 -0.660759,0.35814 -1.630219,0.461987 -2.222656,0.240234 -1.315908,-0.492554 -1.994141,-1.433649 -1.994141,-2.769531 0,-1.609322 1.176745,-2.786505 2.792969,-2.796875 z m 7.449219,3.503906 c 1.093238,0 1.988783,0.528156 2.519531,1.486328 0.266325,0.480805 0.30874,0.666375 0.306641,1.34375 -0.0019,0.602768 -0.05534,0.887914 -0.230469,1.21875 -0.357861,0.67605 -0.723249,1.051086 -1.310547,1.34375 -0.425662,0.212117 -0.691189,0.268019 -1.230469,0.261719 -0.378016,-0.0044 -0.83012,-0.06315 -1.005859,-0.13086 -2.166823,-0.834871 -2.578476,-3.645535 -0.728516,-4.982421 0.544409,-0.393422 1.006596,-0.541016 1.679688,-0.541016 z m 7.599609,3.095703 c 0.679836,-0.0021 0.864377,0.04058 1.357422,0.3125 0.938629,0.517666 1.452514,1.400155 1.464844,2.515625 0.01217,1.101008 -0.657823,2.157508 -1.648438,2.595703 -1.495686,0.661614 -3.221026,-0.02921 -3.853515,-1.542968 -0.08357,-0.200007 -0.152344,-0.685791 -0.152344,-1.080079 0,-1.172349 0.512853,-1.986775 1.615234,-2.570312 0.330836,-0.175125 0.614029,-0.228569 1.216797,-0.230469 z m 7.697266,2.56836 c 0.339389,-0.0013 0.804337,0.05448 1.033203,0.123046 0.557323,0.166977 1.36363,0.910711 1.654297,1.525391 0.288303,0.609686 0.31552,1.66397 0.05859,2.259766 -0.253192,0.587134 -0.883508,1.229104 -1.476562,1.505859 -1.239423,0.578392 -2.83513,0.132489 -3.558594,-0.994141 -1.230211,-1.915772 0.06279,-4.411622 2.289063,-4.419921 z m 8.550781,1.984374 c 1.152247,-0.03345 2.311311,0.640261 2.794922,1.761719 0.218735,0.507235 0.226979,1.639976 0.01563,2.140625 -0.241606,0.572313 -0.902436,1.24627 -1.492188,1.521485 -0.750233,0.350105 -1.710723,0.339697 -2.443359,-0.02539 -2.117154,-1.055022 -2.117154,-4.066072 0,-5.121094 0.356903,-0.177852 0.740917,-0.266194 1.125,-0.277344 z m 8.851562,1.542969 c 0.412632,0.0082 0.828324,0.08052 1.119141,0.212891 0.556978,0.253513 1.169267,0.845267 1.429687,1.380859 0.105989,0.217977 0.204516,0.710631 0.228516,1.144531 0.03668,0.663253 0.0056,0.835574 -0.238281,1.333985 -0.331961,0.678506 -0.945464,1.239293 -1.607422,1.464844 -0.555955,0.189431 -1.398924,0.199681 -1.876953,0.02344 -0.58516,-0.215742 -1.263145,-0.771819 -1.560547,-1.279297 -0.413132,-0.704956 -0.476611,-1.784652 -0.150391,-2.542969 0.261901,-0.608806 0.959516,-1.314807 1.552735,-1.570312 0.280871,-0.120973 0.690884,-0.176192 1.103515,-0.167969 z"
     inkscape:connector-curvature="0" /><path
     style="fill:#ffff00;fill-opacity:1;stroke:none;stroke-width:0.10503803;stroke-linecap:round;stroke-linejoin:round;stroke-miterlimit:4;stroke-dasharray:none;stroke-opacity:0.58823529"
     d="M 3.183626,37.029015 C 2.45006,36.727443 1.74699,36.080573 1.3576398,35.348989 c -0.2456382,-0.46155 -0.279128,-0.64371 -0.2795716,-1.520656 -6.057e-4,-1.197414 0.226582,-1.7644 1.0158292,-2.53518 1.7382102,-1.697537 4.7877043,-1.02453 5.6438894,1.245577 0.3158617,0.837482 0.2598513,2.051652 -0.1297348,2.812336 -0.8302991,1.621197 -2.7716032,2.35743 -4.424426,1.677949 z"
     id="path4726"
     inkscape:connector-curvature="0" /><path
     style="fill:#ffff00;fill-opacity:1;stroke:none;stroke-width:0.10503803;stroke-linecap:round;stroke-linejoin:round;stroke-miterlimit:4;stroke-dasharray:none;stroke-opacity:0.58823529"
     d="m 27.146771,51.700513 c -0.986318,-0.358803 -1.731923,-1.027851 -2.146579,-1.926174 -0.172689,-0.374119 -0.219961,-0.681228 -0.218743,-1.421112 0.0018,-1.118627 0.237822,-1.713502 0.970569,-2.446665 0.67997,-0.680356 1.467936,-1.00619 2.440194,-1.009051 0.68363,-0.002 0.885851,0.04409 1.483153,0.338143 1.643197,0.808943 2.398478,2.590193 1.824235,4.302267 -0.251022,0.748411 -1.129228,1.695768 -1.869296,2.01649 -0.719363,0.311747 -1.845995,0.378025 -2.483533,0.146102 z"
     id="path4728"
     inkscape:connector-curvature="0" /><path
     style="fill:#ffff00;fill-opacity:1;stroke:none;stroke-width:0.10503803;stroke-linecap:round;stroke-linejoin:round;stroke-miterlimit:4;stroke-dasharray:none;stroke-opacity:0.58823529"
     d="M 54.981175,57.31444 C 53.88827,57.167973 52.763906,56.306925 52.273428,55.240824 52.098684,54.861 52.047845,54.549542 52.047885,53.859053 c 4.4e-5,-0.776635 0.03951,-0.969615 0.306471,-1.498684 0.357856,-0.709198 1.025845,-1.363388 1.718027,-1.682536 0.388264,-0.179019 0.686854,-0.225765 1.434207,-0.224535 1.118626,0.0018 1.713502,0.237822 2.446665,0.970569 1.695189,1.694227 1.203111,4.539662 -0.963512,5.571505 -0.718326,0.342099 -1.230097,0.423396 -2.008568,0.319068 z"
     id="path4730"
     inkscape:connector-curvature="0" /><path
     style="fill:#ffff00;fill-opacity:1;stroke:none;stroke-width:0.10503803;stroke-linecap:round;stroke-linejoin:round;stroke-miterlimit:4;stroke-dasharray:none;stroke-opacity:0.58823529"
     d="m 62.101874,45.054913 c -0.994989,-0.570684 -1.421692,-1.295642 -1.428778,-2.427457 -0.0056,-0.889692 0.269922,-1.491646 0.971249,-2.122199 0.608286,-0.546901 1.233916,-0.752419 2.037895,-0.669441 0.710241,0.0733 1.185008,0.2958 1.685695,0.789992 0.57418,0.56673 0.778227,1.086416 0.780949,1.988997 0.0026,0.874151 -0.139554,1.287007 -0.63927,1.856152 -0.811543,0.924297 -2.353627,1.188551 -3.40774,0.583956 z"
     id="path4732"
     inkscape:connector-curvature="0" /><path
     style="fill:#ffff00;fill-opacity:1;stroke:none;stroke-width:0.10503803;stroke-linecap:round;stroke-linejoin:round;stroke-miterlimit:4;stroke-dasharray:none;stroke-opacity:0.58823529"
     d="m 53.965567,43.754506 c -0.503244,-0.14066 -0.645104,-0.224383 -1.172718,-0.692115 -1.101803,-0.976754 -1.053541,-3.075493 0.09389,-4.082951 0.571762,-0.502014 1.046479,-0.676584 1.8336,-0.67428 2.396096,0.007 3.706679,2.788238 2.136726,4.534404 -0.777168,0.864397 -1.853655,1.205025 -2.8915,0.914942 z"
     id="path4734"
     inkscape:connector-curvature="0" /><path
     style="fill:#ffff00;fill-opacity:1;stroke:none;stroke-width:0.10503803;stroke-linecap:round;stroke-linejoin:round;stroke-miterlimit:4;stroke-dasharray:none;stroke-opacity:0.58823529"
     d="m 45.596102,41.808879 c -1.654226,-0.352719 -2.588835,-1.999329 -2.086489,-3.676013 0.17083,-0.570179 0.814247,-1.291949 1.407872,-1.579318 0.593724,-0.287417 1.845595,-0.315199 2.354095,-0.05224 0.508505,0.262959 1.1478,0.885749 1.393455,1.357481 0.317127,0.608979 0.319355,1.833392 0.0044,2.426384 -0.265286,0.499499 -0.964381,1.161142 -1.433183,1.356403 -0.446575,0.186004 -1.194617,0.262308 -1.640167,0.167307 z"
     id="path4736"
     inkscape:connector-curvature="0" /><path
     style="fill:#ffff00;fill-opacity:1;stroke:none;stroke-width:0.10503803;stroke-linecap:round;stroke-linejoin:round;stroke-miterlimit:4;stroke-dasharray:none;stroke-opacity:0.58823529"
     d="m 37.351558,39.112126 c -0.593608,-0.210524 -1.235277,-0.786382 -1.511067,-1.356086 -0.321517,-0.664167 -0.322502,-1.840696 -0.0021,-2.502569 0.459035,-0.94824 1.413082,-1.525405 2.521478,-1.525405 1.618414,0 2.729497,1.129234 2.724391,2.768898 -0.0028,0.9003 -0.225814,1.445668 -0.831538,2.033503 -0.724216,0.702827 -1.896693,0.937899 -2.901169,0.581659 z"
     id="path4738"
     inkscape:connector-curvature="0" /><path
     style="fill:#ffff00;fill-opacity:1;stroke:none;stroke-width:0.10503803;stroke-linecap:round;stroke-linejoin:round;stroke-miterlimit:4;stroke-dasharray:none;stroke-opacity:0.58823529"
     d="m 30.337098,36.132318 c -2.154871,-0.240583 -3.141462,-3.036598 -1.623429,-4.600827 0.612124,-0.630752 1.176855,-0.88019 1.992766,-0.88019 1.637855,0 2.829286,1.149227 2.829286,2.729063 0,1.808876 -1.337643,2.959725 -3.198623,2.751954 z"
     id="path4740"
     inkscape:connector-curvature="0" /><path
     style="fill:#ffff00;fill-opacity:1;stroke:none;stroke-width:0.10503803;stroke-linecap:round;stroke-linejoin:round;stroke-miterlimit:4;stroke-dasharray:none;stroke-opacity:0.58823529"
     d="m 22.25503,32.476478 c -1.091476,-0.495747 -1.666935,-1.390607 -1.659688,-2.580878 0.0051,-0.836967 0.173495,-1.305915 0.673422,-1.8753 1.227246,-1.397757 3.671001,-1.100892 4.528729,0.550146 0.588145,1.132119 0.303469,2.703688 -0.628974,3.472287 -0.757676,0.62454 -2.064932,0.819158 -2.913489,0.433745 z"
     id="path4742"
     inkscape:connector-curvature="0" /><path
     style="fill:#ffff00;fill-opacity:1;stroke:none;stroke-width:0.10503803;stroke-linecap:round;stroke-linejoin:round;stroke-miterlimit:4;stroke-dasharray:none;stroke-opacity:0.58823529"
     d="m 14.868348,28.50496 c -0.482423,-0.236346 -1.16457,-0.924666 -1.391747,-1.404341 -0.290454,-0.613282 -0.247713,-1.802372 0.08908,-2.478224 0.591575,-1.187136 1.993098,-1.763968 3.319985,-1.366424 0.552778,0.165617 1.369414,0.914562 1.666592,1.528449 0.686121,1.417337 -0.07752,3.235333 -1.57304,3.744906 -0.629155,0.214374 -1.647553,0.202619 -2.110868,-0.02437 z"
     id="path4744"
     inkscape:connector-curvature="0" /><path
     style="fill:#ffffff;fill-opacity:1;stroke:none;stroke-width:0.10503803;stroke-linecap:round;stroke-linejoin:round;stroke-miterlimit:4;stroke-dasharray:none;stroke-opacity:0.58823529"
     d="M 7.7886653,23.61882 C 6.4344076,22.988174 5.785161,21.345369 6.3681302,20.024403 c 0.47831,-1.083815 1.3825196,-1.711399 2.4700273,-1.714369 0.9126233,-0.0025 1.3780125,0.163122 1.9427205,0.69134 0.701778,0.656431 0.981153,1.344764 0.915909,2.25664 -0.139701,1.952505 -2.1618175,3.174019 -3.9081217,2.360806 z"
     id="path4746"
     inkscape:connector-curvature="0" /><path
     style="fill:#ffffff;fill-opacity:1;stroke:none;stroke-width:0.10503803;stroke-linecap:round;stroke-linejoin:round;stroke-miterlimit:4;stroke-dasharray:none;stroke-opacity:0.58823529"
     d="m 25.1772,13.487239 c -0.906516,-0.552735 -0.906516,-1.962114 0,-2.53167 0.256735,-0.161305 0.465503,-0.201356 0.887135,-0.170195 1.462246,0.10807 1.900131,1.988091 0.638468,2.741205 -0.383977,0.229203 -1.116141,0.210324 -1.525603,-0.03934 z"
     id="path4748"
     inkscape:connector-curvature="0" /><path
     style="fill:#ffffff;fill-opacity:1;stroke:none;stroke-width:0.10503803;stroke-linecap:round;stroke-linejoin:round;stroke-miterlimit:4;stroke-dasharray:none;stroke-opacity:0.58823529"
     d="m 29.474524,16.308895 c -0.775687,-0.16431 -1.252944,-0.82824 -1.149541,-1.599168 0.199944,-1.490692 2.187072,-1.819868 2.802456,-0.464238 0.251452,0.553923 0.251881,0.751732 0.0028,1.300283 -0.279132,0.614778 -0.933107,0.916194 -1.655733,0.763123 z"
     id="path4750"
     inkscape:connector-curvature="0" /><path
     style="fill:#ffffff;fill-opacity:1;stroke:none;stroke-width:0.10503803;stroke-linecap:round;stroke-linejoin:round;stroke-miterlimit:4;stroke-dasharray:none;stroke-opacity:0.58823529"
     d="m 33.000647,18.278838 c -0.941766,-0.629141 -0.919931,-1.906348 0.04263,-2.493256 0.646062,-0.393929 1.596804,-0.173531 2.01685,0.467541 0.621821,0.949018 -0.111251,2.263769 -1.26222,2.263769 -0.283815,0 -0.567875,-0.08482 -0.797256,-0.238054 z"
     id="path4754"
     inkscape:connector-curvature="0" /><path
     style="fill:#ffffff;fill-opacity:1;stroke:none;stroke-width:0.10503803;stroke-linecap:round;stroke-linejoin:round;stroke-miterlimit:4;stroke-dasharray:none;stroke-opacity:0.58823529"
     d="m 37.027836,20.199104 c -0.933477,-0.569174 -0.863547,-2.097032 0.117284,-2.562467 1.333949,-0.633 2.671994,0.736878 1.996209,2.043702 -0.354345,0.685228 -1.413938,0.945309 -2.113493,0.518765 z"
     id="path4756"
     inkscape:connector-curvature="0" /><path
     style="fill:#ffffff;fill-opacity:1;stroke:none;stroke-width:0.10503803;stroke-linecap:round;stroke-linejoin:round;stroke-miterlimit:4;stroke-dasharray:none;stroke-opacity:0.58823529"
     d="m 41.663369,22.081152 c -0.485131,-0.103917 -0.785191,-0.329253 -1.005013,-0.754733 -0.257629,-0.498655 -0.254811,-0.989622 0.0082,-1.42092 0.740226,-1.214066 2.610222,-0.871934 2.727963,0.499105 0.05297,0.616823 -0.01475,0.857354 -0.341538,1.213121 -0.370656,0.403522 -0.878517,0.572896 -1.389566,0.463427 z"
     id="path4758"
     inkscape:connector-curvature="0" /><path
     style="fill:#ffffff;fill-opacity:1;stroke:none;stroke-width:0.10503803;stroke-linecap:round;stroke-linejoin:round;stroke-miterlimit:4;stroke-dasharray:none;stroke-opacity:0.58823529"
     d="m 45.49123,23.346163 c -0.47633,-0.253516 -0.751589,-0.735494 -0.751589,-1.316029 0,-0.614075 0.278584,-1.05655 0.834708,-1.325765 1.761845,-0.852895 3.011657,1.733024 1.281864,2.652238 -0.458619,0.24371 -0.893711,0.240381 -1.364983,-0.01044 z"
     id="path4760"
     inkscape:connector-curvature="0" /><path
     style="fill:#ffffff;fill-opacity:1;stroke:none;stroke-width:0.10503803;stroke-linecap:round;stroke-linejoin:round;stroke-miterlimit:4;stroke-dasharray:none;stroke-opacity:0.58823529"
     d="m 50.315382,24.525455 c -0.244569,-0.0894 -0.634078,-0.473738 -0.796511,-0.785929 -0.463228,-0.890311 0.268919,-2.076448 1.281693,-2.076448 0.931701,0 1.507645,0.536465 1.507011,1.403709 -4.62e-4,0.634442 -0.263412,1.132218 -0.723873,1.370331 -0.306482,0.158489 -0.953198,0.203532 -1.26832,0.08834 z"
     id="path4762"
     inkscape:connector-curvature="0" /><path
     style="fill:#ffff00;fill-opacity:1;stroke:none;stroke-width:0.10503803;stroke-linecap:round;stroke-linejoin:round;stroke-miterlimit:4;stroke-dasharray:none;stroke-opacity:0.58823529"
     d="m 54.850176,25.229323 c -0.725503,-0.442344 -0.947987,-1.261941 -0.53974,-1.988318 0.292166,-0.519839 0.689424,-0.738944 1.339777,-0.738944 1.528894,0 2.005436,2.074549 0.638871,2.781227 -0.417844,0.216076 -1.033901,0.192971 -1.438908,-0.05396 z"
     id="path4764"
     inkscape:connector-curvature="0" /><path
     style="fill:#ffff00;fill-opacity:1;stroke:none;stroke-width:0.10503803;stroke-linecap:round;stroke-linejoin:round;stroke-miterlimit:4;stroke-dasharray:none;stroke-opacity:0.58823529"
     d="M 8.2425376,23.723099 C 7.0540423,23.393425 6.2095849,22.265221 6.2296361,21.033841 6.2412781,20.318916 6.4449182,19.824748 6.9664734,19.245782 7.518208,18.633315 8.1009449,18.391479 9.0046486,18.39994 c 0.8675157,0.0081 1.3514284,0.223393 1.9220924,0.855049 0.528017,0.584452 0.691008,1.011134 0.688245,1.801702 -0.0063,1.807919 -1.684371,3.13466 -3.3724484,2.666408 z"
     id="path4766"
     inkscape:connector-curvature="0" /><path
     style="fill:#ffffff;fill-opacity:1;stroke:none;stroke-width:0.10503803;stroke-linecap:round;stroke-linejoin:round;stroke-miterlimit:4;stroke-dasharray:none;stroke-opacity:0.58823529"
     d="m 55.181008,25.325126 c -0.952693,-0.276403 -1.310829,-1.458333 -0.694068,-2.290584 0.387596,-0.523017 1.371399,-0.648618 1.976249,-0.252305 0.878795,0.575809 0.708628,2.093179 -0.279062,2.488374 -0.465843,0.186394 -0.535511,0.19018 -1.003119,0.05452 z"
     id="path4768"
     inkscape:connector-curvature="0" /><path
     style="fill:#ffffff;fill-opacity:1;stroke:none;stroke-width:0.10503803;stroke-linecap:round;stroke-linejoin:round;stroke-miterlimit:4;stroke-dasharray:none;stroke-opacity:0.58823529"
     d="M 46.194661,11.485795 C 42.031156,10.588445 37.784847,7.780642 37.321108,5.6183016 37.094235,4.560429 37.643449,3.748668 38.853853,3.3528411 c 0.897056,-0.2933558 2.967532,-0.2705256 4.422514,0.048765 2.926327,0.642172 5.753849,2.0760075 7.463272,3.7846232 0.93856,0.9381172 1.358582,1.6947683 1.358582,2.4474279 0,1.0008098 -0.540137,1.5966878 -1.726218,1.9043578 -0.887032,0.230097 -2.98939,0.203816 -4.177342,-0.05222 z"
     id="path4770"
     inkscape:connector-curvature="0" /><g
     id="g4794"
     transform="matrix(0.23178702,0.20500102,-0.20406215,0.23285345,53.860496,-147.59464)"
     inkscape:transform-center-x="19.702416"
     inkscape:transform-center-y="-3.0450898"><path
       id="path4772"
       style="clip-rule:evenodd;fill:#54963d;fill-rule:evenodd;stroke-width:1"
       d="m 275.44044,391.36315 c -1.10043,1.08152 -1.64153,3.29212 -1.25685,5.70344 0.51307,3.21608 2.47886,5.57649 4.38917,5.27253 1.7008,-0.27062 2.78595,-2.56172 2.64101,-5.33144 1.34136,-0.52914 2.69091,-0.83061 4.04995,-0.91228 1.72354,6.135 8.04197,10.48199 15.86567,11.39445 -0.54414,0.40417 -1.00714,0.83806 -1.42364,1.2848 0.0626,-0.0122 0.1562,-0.0324 0.11958,-0.0161 -0.043,0.0192 -0.0751,0.0239 -0.13573,0.0356 l -0.004,0.005 c 0.24313,0.007 0.63217,0.0175 0.47364,0.0302 -0.16483,0.0133 -0.32887,0.001 -0.4938,-0.006 -0.0101,0.011 -0.018,0.0229 -0.0282,0.0341 0.25567,-0.0112 0.51077,-0.0303 0.76449,-0.0248 -0.01,-7.3e-4 0.0129,-6.8e-4 0.0268,-0.003 0.0117,-0.002 0.0138,-0.005 0.0219,-0.007 0.0846,-0.0124 0.17201,-0.0242 0.25694,-0.0339 0.17135,0.003 0.1566,-0.0124 0.32969,-0.023 0,0 0.009,-9.8e-4 0.009,-9.8e-4 0.0281,-0.0154 0.0553,-0.0339 0.0856,-0.0441 0.0966,-0.0328 0.19903,-0.0445 0.29892,-0.0648 0.0428,-0.0306 0.30704,-0.0737 0.31589,-0.0754 0.13403,-0.0203 0.26999,-0.0256 0.40484,-0.0348 0,0 0.005,0.004 0.005,0.004 0,0 0.009,-9.8e-4 0.009,-9.8e-4 0.0231,-0.01 0.0253,-0.0258 0.042,-0.031 0.14765,-0.0457 0.30797,-0.0506 0.4622,-0.0448 0.0891,0.003 0.17487,0.0413 0.25791,0.0736 0.004,10e-4 -0.006,-0.006 0.0187,0.007 0.0416,-0.007 0.0901,-5.9e-4 0.13012,8.3e-4 0.0594,-0.0186 0.12006,-0.0362 0.17852,-0.0576 0.0235,-0.009 -0.093,0.0265 -0.0703,0.0158 0.13381,-0.0651 0.26354,-0.0966 0.41036,-0.12042 0.0581,-0.009 0.11542,-0.0192 0.17374,-0.0124 0.0355,0.004 0.0701,0.0143 0.10511,0.0212 0.008,-10e-4 0.008,-0.005 0.0129,-0.006 0.0575,-0.0132 0.1172,-0.0335 0.17613,-0.035 0.22152,-0.006 0.55159,0.0474 0.26023,0.002 0,0 0.005,0.004 0.005,0.004 0.007,-0.004 0.0146,-0.004 0.0219,-0.007 0.0298,-0.0111 0.0606,-0.0165 0.0921,-0.0224 0.0927,-0.0185 0.18687,-0.0218 0.27958,-0.0316 8e-4,-0.008 0.018,-10e-4 0.0219,-0.007 0.0258,-0.0369 0.0962,-0.0386 0.14783,-0.0502 0.0718,-0.0165 0.1489,-0.0179 0.22139,-0.0304 0.13345,-0.0233 -0.12741,0.0135 -0.12443,0.0121 0.0919,-0.0337 0.18127,-0.0618 0.27382,-0.0937 0.16305,-0.0168 0.31445,-0.0303 0.47677,-0.0328 0.0358,-7.1e-4 0.0719,0.002 0.10748,-10e-4 0.0123,-10e-4 -0.0469,10e-4 -0.0365,-0.005 0.0228,-0.0139 0.0485,-0.0145 0.0743,-0.0206 0.0912,-0.0342 0.16602,-0.0546 0.27548,-0.076 0.20106,-0.10977 0.42371,-0.13692 0.65192,-0.17519 0.0229,-0.004 -0.045,0.01 -0.0671,0.002 0.17939,-0.0712 0.35292,-0.15625 0.54198,-0.20037 0.0727,-0.0166 0.14751,-0.0242 0.22056,-0.0393 0.0151,-0.003 0.0332,-0.0116 0.0476,-0.0181 0.07,-0.0109 0.13768,-0.0227 0.20766,-0.0336 0.11145,-0.0337 0.22627,-0.0801 0.34657,-0.0829 0.0142,-0.006 0.0281,-0.0171 0.0428,-0.0221 0.0737,-0.0242 0.14719,-0.0458 0.22295,-0.0619 0.0189,-0.004 0.0382,-0.008 0.0574,-0.01 0.19551,-0.1767 0.46801,-0.23511 0.7181,-0.23536 0.0152,-3e-5 0.0239,0.009 0.0452,0.005 0.12665,-0.059 0.2749,-0.1725 0.50889,-0.17028 0.0913,8.3e-4 0.17746,0.0162 0.26755,0.0323 0.0813,-0.032 0.0857,-0.0295 0.25769,-0.0743 0.10347,-0.0323 0.17988,-0.0403 0.23349,-0.045 0.0155,-0.009 0.0311,-0.0182 0.0469,-0.0269 0.0332,-0.0183 0.13322,-0.006 0.11638,-0.002 0,0 0.009,-9.8e-4 0.009,-9.8e-4 0.15412,-0.0693 0.29864,-0.1644 0.48222,-0.1677 0.0462,-0.001 -0.097,0.0238 -0.14222,0.0138 -0.0266,-0.006 0.0516,-0.0199 0.0783,-0.0255 0.0429,-0.009 0.0844,-0.0189 0.12765,-0.0258 0.14729,-0.1302 0.13209,-0.13242 0.52898,-0.24391 8e-4,-1.2e-4 0.0448,-0.002 0.0889,-0.009 0.19815,-0.0733 0.31488,-0.10385 0.18979,-0.0811 0.17567,-0.0788 0.36272,-0.11452 0.55341,-0.12532 0.042,-0.003 -0.16441,0.0388 -0.12848,0.0169 0.0711,-0.0437 0.30042,-0.0598 0.37488,-0.0677 0.11427,-0.0398 0.23833,-0.017 0.35636,-0.0256 0.007,-5.2e-4 -0.0248,-0.004 -0.0187,-0.007 0.0308,-0.0128 0.0812,-0.0126 0.14624,-0.0186 0.0768,-0.0321 0.15367,-0.0656 0.23425,-0.0854 0.0816,-0.0201 0.16513,-0.0184 0.24888,-0.0241 0.16466,-0.0106 0.11938,0.0345 0.16486,-0.0115 0.0855,-0.0183 0.16745,-0.0141 0.25374,-0.0201 0.0145,-0.002 0.0297,-6.5e-4 0.0445,-0.004 0.0101,-0.0114 0.0564,-0.0236 0.0864,-0.0353 0.0154,-0.004 0.13635,-0.0237 0.24238,-0.0459 0,0 0.009,-9.9e-4 0.009,-9.9e-4 -0.0159,-0.0127 0.065,-0.0351 0.0985,-0.0499 l 0.20839,-0.0739 c 1.01389,-0.0339 0.0855,-0.008 0.12929,-0.008 0.21904,0.002 0.22901,0.0273 0.27157,0.0274 0,0 0.004,-0.005 0.004,-0.005 0,0 0.005,0.004 0.005,0.004 0.0428,9.1e-4 0.11722,-0.0241 0.28048,0.0266 0.0474,0.0148 -0.0878,-0.0209 -0.13909,-0.0492 0.11641,-0.0303 0.22543,-0.0574 0.34584,-0.0425 -0.0211,-0.007 0.0346,-0.028 0.0549,-0.0367 0.90112,-0.38854 0.16908,-0.0376 0.39737,-0.16395 0.0853,-0.0251 0.17179,-0.0514 0.25769,-0.0743 0.14331,-0.0381 0.2986,-0.0652 0.44682,-0.0657 0.16107,-3.6e-4 0.19015,0.0161 0.16649,0.006 0.0278,-0.0115 0.0484,-0.0286 0.0775,-0.0344 0.0329,-0.006 0.0685,-0.0101 0.10181,-0.0144 0.015,-0.0225 0.0525,-0.0115 0.0792,-0.0166 0.019,-0.0542 0.10073,-0.0439 0.15589,-0.0599 0.0678,-0.0201 0.14126,-0.0321 0.21085,-0.0473 0.0194,-0.0117 0.003,-0.0113 0.0331,-0.0301 0.0981,-0.0613 0.18819,-0.0634 0.26897,-0.0977 -0.36108,-0.1435 -0.73229,-0.27768 -1.13445,-0.38725 6.59706,-3.39724 10.80911,-9.23317 10.52394,-15.31471 1.07517,-0.20953 2.18796,-0.28578 3.34306,-0.21661 0.72391,2.67659 2.46877,4.51616 4.16858,4.24569 1.91132,-0.30414 3.04015,-3.15255 2.52708,-6.36862 -0.51306,-3.21607 -2.46898,-5.57751 -4.38028,-5.27339 -1.65739,0.26668 -2.72997,2.44707 -2.65243,5.11823 -1.07102,0.31815 -2.14989,0.55001 -3.22676,0.69808 -1.59361,-8.16627 -11.12629,-13.48832 -21.94224,-12.41798 0.62674,-1.40707 1.37351,-2.66654 2.32515,-3.6568 0.976,-1.0154 2.19021,-1.76939 3.50153,-2.28363 1.46409,-0.57295 3.03588,-0.84625 4.50992,-0.83592 2.44897,0.0171 4.70716,0.82584 6.93676,1.74199 -0.20547,0.66208 -0.26682,1.3763 -0.15032,2.10655 0.40428,2.53418 2.78825,4.2685 5.3261,3.86469 2.53786,-0.40381 4.26564,-2.79015 3.86135,-5.32432 -0.40428,-2.53418 -2.78742,-4.25962 -5.32528,-3.85581 -1.11772,0.17784 -2.07698,0.73815 -2.76887,1.52721 -2.47083,-1.0245 -4.98288,-1.9492 -7.86812,-1.96975 -1.71242,-0.0119 -3.52793,0.29692 -5.21607,0.95814 -1.55749,0.61009 -3.01666,1.51943 -4.19423,2.74499 -1.38559,1.43978 -2.3541,3.27538 -3.14295,5.28603 -11.20774,1.99379 -19.18184,10.27053 -18.14205,18.80825 -1.31776,0.28961 -2.67234,0.46065 -4.06594,0.49722 -0.75747,-2.56297 -2.45295,-4.30444 -4.10927,-4.04089 -0.47758,0.076 -0.90745,0.30954 -1.27427,0.67005 z m 35.02155,15.5086 c -0.0369,0.0214 -0.0738,0.043 -0.11063,0.0645 0.0804,-0.0654 0.18437,-0.0491 0.2698,-0.0889 -0.084,0.007 -0.12286,0.0212 -0.15917,0.0244 z m -18.5872,6.77887 0.005,0.004 c 0.008,0.002 0.0151,7e-4 0.0226,0.002 0.0316,8.9e-4 0.0629,0.004 0.0946,0.004 -0.0398,-0.008 -0.0487,-0.0134 -0.0736,-0.0197 -0.0142,0.001 -0.0209,0.003 -0.0445,0.004 z m 3.79769,-2.03908 c 0.0821,-0.0559 0.11639,-0.009 0.14798,0.0484 -0.0493,-0.0176 -0.0983,-0.0329 -0.14798,-0.0484 z m -0.1681,2.10828 c -0.008,-0.052 -0.003,0.0665 -0.008,0.15754 0.003,-0.005 0.009,-0.009 0.0122,-0.0147 -4.5e-4,-0.0138 9.4e-4,-0.0265 8.2e-4,-0.0405 -0.004,-0.034 4.2e-4,-0.0687 -0.005,-0.10255 z m 5.60837,-4.95615 c 0.0162,-4.5e-4 0.0332,0.001 0.0494,-3.8e-4 0.008,-9e-4 -0.0195,-0.009 -0.0275,-0.006 -0.007,0.002 -0.0146,0.004 -0.0219,0.007 z m 2.00314,-0.20764 c 0.097,0.008 0.18437,-0.006 0.31356,-0.004 0.0423,10e-4 -0.0818,-0.0301 -0.1237,-0.0283 -0.0644,0.003 -0.12644,0.0192 -0.18986,0.0318 z m 0.79339,-0.14859 c 0.0854,0.0183 0.17078,0.0378 0.25628,0.0558 -0.0694,-0.0178 -0.136,-0.046 -0.20697,-0.0561 -0.0165,-0.002 -0.0326,-0.002 -0.0494,3.8e-4 z m 3.65979,1.31607 c 0.0161,-0.007 -0.004,0.006 0.0606,-0.0238 0.0214,-0.008 0.0408,-0.007 0.0614,-0.0149 0.0291,-0.0113 0.0586,-0.0207 0.0864,-0.0353 0.0201,-0.0103 0.0718,-0.047 0.05,-0.0407 -0.0766,0.0223 -0.15133,0.0491 -0.22617,0.0757 -0.0121,0.0119 -0.02,0.0272 -0.0323,0.039 z m 2.55777,-2.69384 c 0.0319,0.0121 0.0656,0.0285 0.0979,0.0397 0.0302,0.0106 -0.0567,-0.0405 -0.0889,-0.0407 0,0 -0.009,9.9e-4 -0.009,9.9e-4 z m 0.912,-0.27208 c 0.0719,-0.0559 0.0597,-0.047 0.10008,-0.0814 -0.008,0.006 -0.0173,0.005 -0.0258,0.0114 -0.0276,0.0209 -0.1016,0.0912 -0.0743,0.0699 z m 0.1857,-0.12552 c 0.0387,-0.006 0.076,-0.0139 0.11472,-0.0201 -0.0289,0.003 -0.0562,-8e-4 -0.0849,0.004 -0.0121,0.002 -0.0191,0.0132 -0.0299,0.0164 z m 4.58005,-0.95024 c 0.0478,0.005 0.0692,0.0106 0.1358,0.0137 0.015,6.3e-4 -0.023,-0.009 -0.0372,-0.0143 -0.0435,-0.0154 -0.0692,-0.006 -0.0986,6e-4 z m -7.64866,16.77854 c 0.0236,-0.008 0.0609,-0.0285 0.0904,-0.0401 -0.006,-0.0139 -0.0194,-0.024 -0.0259,-0.0378 -0.0212,0.0241 -0.0427,0.052 -0.0645,0.0779 z m 11.58268,-8.96225 c 0.1082,-0.015 0.2024,-0.0331 0.31433,-0.0439 -0.0457,-8.2e-4 -0.16268,-0.002 -0.24243,-0.003 -0.0128,0.008 -0.0565,0.0379 -0.0718,0.0473 z m 3.77354,4.87081 c -0.0176,0.16269 0.0357,0.29484 0.23978,0.362 0.0201,0.007 0.0348,-6.3e-4 0.0542,0.004 0.0539,-0.0621 0.10884,-0.12335 0.16227,-0.18585 -0.14991,-0.0656 -0.29721,-0.12137 -0.45608,-0.17977 z m 1.11862,0.60382 c 0.0161,0.008 0.0147,0.0197 0.034,0.0281 0.0538,0.0235 0.11451,0.0301 0.17382,0.0369 -0.0174,-0.0108 -0.0344,-0.0252 -0.0527,-0.0351 -0.0457,-0.0134 -0.11368,-0.0274 -0.15522,-0.0297 z m 2.07078,2.80057 c -0.0453,0.0911 0.0486,-0.10166 -0.17082,0.33461 -0.22386,0.29055 -0.38628,0.62351 -0.56751,0.94198 0.39879,-0.35556 0.67078,-0.77161 0.7408,-1.24995 10e-4,-0.009 -0.004,-0.0178 -0.002,-0.0268 z"
       inkscape:connector-curvature="0" /><path
       id="path4778"
       d="m 299.078,379.747 c 2.734,0 4.951,3.761 4.951,8.401 0,4.64 -2.216,8.4 -4.951,8.4 -2.734,0 -4.951,-3.761 -4.951,-8.4 0,-4.64 2.217,-8.401 4.951,-8.401 z"
       style="clip-rule:evenodd;fill:#ffffff;fill-rule:evenodd"
       inkscape:connector-curvature="0" /><path
       id="path4780"
       d="m 299.478,382.998 c 1.693,0 3.065,2.329 3.065,5.201 0,2.873 -1.372,5.201 -3.065,5.201 -1.692,0 -3.064,-2.328 -3.064,-5.201 0,-2.873 1.372,-5.201 3.064,-5.201 z"
       style="clip-rule:evenodd;fill-rule:evenodd"
       inkscape:connector-curvature="0" /><path
       id="path4782"
       d="m 313.381,379.747 c 2.734,0 4.949,3.761 4.949,8.401 0,4.64 -2.215,8.4 -4.949,8.4 -2.734,0 -4.951,-3.761 -4.951,-8.4 0,-4.64 2.216,-8.401 4.951,-8.401 z"
       style="clip-rule:evenodd;fill:#ffffff;fill-rule:evenodd"
       inkscape:connector-curvature="0" /><path
       id="path4784"
       d="m 312.631,382.998 c 1.691,0 3.064,2.329 3.064,5.201 0,2.873 -1.373,5.201 -3.064,5.201 -1.693,0 -3.066,-2.328 -3.066,-5.201 -10e-4,-2.873 1.373,-5.201 3.066,-5.201 z"
       style="clip-rule:evenodd;fill-rule:evenodd"
       inkscape:connector-curvature="0" /><path
       id="path4786"
       d="m 299.878,386.248 c 0.651,0 1.179,0.896 1.179,2 0,1.105 -0.528,2.001 -1.179,2.001 -0.651,0 -1.179,-0.896 -1.179,-2.001 0,-1.104 0.528,-2 1.179,-2 z"
       style="clip-rule:evenodd;fill:#ffffff;fill-rule:evenodd"
       inkscape:connector-curvature="0" /><path
       id="path4788"
       d="m 313.029,386.248 c 0.652,0 1.18,0.896 1.18,2 0,1.105 -0.527,2.001 -1.18,2.001 -0.65,0 -1.178,-0.896 -1.178,-2.001 10e-4,-1.104 0.528,-2 1.178,-2 z"
       style="clip-rule:evenodd;fill:#ffffff;fill-rule:evenodd"
       inkscape:connector-curvature="0" /><path
       id="path4790"
       d="m 297.586,399.443 c 0.583,-0.233 2.784,0.033 4.767,0.167 1.983,0.133 3.75,0.133 5.584,0.066 1.834,-0.067 3.734,-0.2 5.885,-0.816 2.15,-0.617 4.549,-1.717 4.949,-1.4 0.4,0.317 -1.199,2.051 -2.857,3.233 -1.66,1.184 -3.377,1.817 -5.676,2.092 -2.301,0.275 -5.185,0.192 -7.143,-0.142 -1.958,-0.333 -2.992,-0.916 -4.026,-1.575 -1.033,-0.658 -2.067,-1.391 -1.483,-1.625 z"
       style="clip-rule:evenodd;fill:#63b045;fill-rule:evenodd"
       inkscape:connector-curvature="0" /><path
       style="fill:none;stroke:#000000;stroke-width:0.00323076;stroke-linecap:butt;stroke-linejoin:miter;stroke-miterlimit:4;stroke-dasharray:none;stroke-opacity:1"
       d="m 298.947,405.49 15.987,-0.329"
       id="path4815"
       inkscape:connector-curvature="0" /></g></svg>